<svg width="256" height="256" viewBox="0 0 256 256" fill="none" xmlns="http://www.w3.org/2000/svg">
  <rect width="256" height="256" rx="64" fill="#100C10"/>
  <rect x="18" y="18" width="220" height="220" rx="46" stroke="url(#paint0_linear)" stroke-width="4"/>
  <path d="M83 185V72H131.5C160.495 72 181 87.6705 181 113.5C181 129.211 173.286 141.51 159.536 147.722L183 185H153.286L134.715 154.828H113.357V185H83ZM113.357 131.147H128.929C144.41 131.147 151.286 124.663 151.286 114.5C151.286 104.337 144.41 97.8529 128.929 97.8529H113.357V131.147Z" fill="url(#paint1_linear)"/>
  <path d="M77 199C93.6542 180.195 109.716 170.793 125.184 170.793C143.41 170.793 158.349 180.529 170 199" stroke="url(#paint2_linear)" stroke-width="8" stroke-linecap="round" opacity="0.9"/>
  <defs>
    <linearGradient id="paint0_linear" x1="40" y1="34" x2="214" y2="230" gradientUnits="userSpaceOnUse">
      <stop stop-color="#E8D8A8"/>
      <stop offset="0.5" stop-color="#C9A96A"/>
      <stop offset="1" stop-color="#7B5A2D"/>
    </linearGradient>
    <linearGradient id="paint1_linear" x1="96" y1="81" x2="182" y2="186" gradientUnits="userSpaceOnUse">
      <stop stop-color="#F5E6BE"/>
      <stop offset="0.45" stop-color="#D5B578"/>
      <stop offset="1" stop-color="#8B6532"/>
    </linearGradient>
    <linearGradient id="paint2_linear" x1="90" y1="173" x2="167" y2="204" gradientUnits="userSpaceOnUse">
      <stop stop-color="#F1E0B6"/>
      <stop offset="1" stop-color="#9D733F"/>
    </linearGradient>
  </defs>
</svg>
